<?xml version="1.0" encoding="UTF-8"?>
<!DOCTYPE svg PUBLIC "-//W3C//DTD SVG 1.1//EN" "http://www.w3.org/Graphics/SVG/1.1/DTD/svg11.dtd">
<!-- Creator: CorelDRAW X8 -->
<svg xmlns="http://www.w3.org/2000/svg" xml:space="preserve" width="29.104mm" height="29.104mm" version="1.1" style="shape-rendering:geometricPrecision; text-rendering:geometricPrecision; image-rendering:optimizeQuality; fill-rule:evenodd; clip-rule:evenodd"
viewBox="0 0 920 920"
 xmlns:xlink="http://www.w3.org/1999/xlink">
 <defs>
  <style type="text/css">
   <![CDATA[
    .fil0 {fill:#B2B3B3}
   ]]>
  </style>
 </defs>
 <g id="Layer_x0020_1">
  <metadata id="CorelCorpID_0Corel-Layer"/>
  <path class="fil0" d="M460 0c254,0 460,206 460,460 0,254 -206,460 -460,460 -254,0 -460,-206 -460,-460 0,-254 206,-460 460,-460zm42 317l0 398c0,23 -18,42 -41,42l0 0c-23,0 -42,-19 -42,-42l0 -395 -134 156c-15,17 -43,21 -59,4l0 0c-17,-16 -20,-41 -5,-59l206 -239c1,0 1,-1 2,-2l0 0c2,-2 3,-4 5,-6l0 0c17,-17 44,-13 59,4l206 239c15,18 12,43 -4,59l0 0c-17,17 -44,13 -59,-4l-134 -155zm-42 -244c214,0 388,173 388,387 0,214 -174,388 -388,388 -214,0 -387,-174 -387,-388 0,-214 173,-387 387,-387z"/>
 </g>
</svg>
